<svg width="155" height="70" viewBox="0 0 155 70" fill="none" xmlns="http://www.w3.org/2000/svg">
<path fill-rule="evenodd" clip-rule="evenodd" d="M10 10.4238C10.3955 10.3796 10.8138 10.3363 11.2522 10.2952C14.5304 9.98812 18.7831 9.82125 22.9422 10.3007C27.1819 10.7895 30.8055 11.8932 33.2639 13.7177C35.4543 15.3434 37.0296 17.7429 37.0296 21.9762C37.0296 26.8069 35.7135 29.5406 34.2589 31.18C32.7445 32.8868 30.5906 33.9556 28.024 34.5387C25.4493 35.1236 22.7601 35.1465 20.6273 34.9913C19.5807 34.9151 18.7147 34.7996 18.1248 34.7061C17.8308 34.6596 17.6085 34.6189 17.4698 34.5922C17.4006 34.5788 17.3525 34.569 17.3271 34.5637L17.3171 34.5617C17.3189 34.5621 17.3209 34.5626 16.2337 39.4429C15.1465 44.3233 15.1487 44.3238 15.1509 44.3243L15.1559 44.3254L15.1677 44.328L15.1985 44.3347C15.2222 44.3398 15.2522 44.3462 15.2883 44.3537C15.3605 44.3687 15.4573 44.3883 15.577 44.4114C15.8162 44.4575 16.148 44.5177 16.5594 44.5829C17.3802 44.713 18.5296 44.8651 19.9013 44.9649C22.6052 45.1617 26.365 45.1704 30.2393 44.2902C34.1216 43.4083 38.4167 41.5612 41.739 37.8168C45.1212 34.005 47.0296 28.7521 47.0296 21.9762C47.0296 14.603 43.9761 9.21481 39.2235 5.68762C34.7389 2.35928 29.1051 0.944973 24.0874 0.366517C18.9891 -0.221229 13.9844 -0.00450841 10.3195 0.338801C8.47112 0.511954 6.92623 0.720987 5.83308 0.888653C5.28579 0.972597 4.84969 1.04648 4.54316 1.10082C4.38984 1.128 4.26875 1.15032 4.18219 1.16659C4.13891 1.17473 4.10424 1.18137 4.07847 1.18634L4.04652 1.19255L4.03561 1.19469L4.03143 1.19552C4.0297 1.19586 4.02812 1.19617 5 6.10081L4.02812 1.19617L0 1.99437V6.10081V69.8017H10V10.4238ZM95.5455 0.841587H56.3365H51.3365V5.84159V33.6907V69.8531H61.3365V38.6907H79.034L83.1767 28.6907H61.3365V10.8416H90.4779L95.5455 0.841587ZM107.387 2L117.912 34.0172L127.8 63.047L125.312 70H119.604L108.437 37.2161L108.428 37.1908L108.42 37.1654L96.8605 2H107.387ZM132.525 27.5036L144.009 2.49249L154.243 3.40758L154.572 3.56289L141.625 31.7607L129.151 60.0857L124.459 45.8178L132.493 27.5738L132.509 27.5386L132.525 27.5036Z" fill="url(#paint0_linear)"/>
<defs>
<linearGradient id="paint0_linear" x1="-1.68506e-06" y1="3.80893" x2="159.773" y2="64.9502" gradientUnits="userSpaceOnUse">
<stop stop-color="#292929"/>
<stop offset="0.26931" stop-color="#25A25A"/>
<stop offset="0.549509" stop-color="#292929"/>
<stop offset="0.768132" stop-color="#25A25A"/>
<stop offset="0.970655" stop-color="#292929"/>
</linearGradient>
</defs>
</svg>
