<svg width="276" height="375" viewBox="0 0 276 375" fill="none" xmlns="http://www.w3.org/2000/svg">
<path d="M275.224 375H1.5065C1.31597 375 1.13322 374.922 0.998494 374.783C0.863765 374.643 0.788086 374.454 0.788086 374.257C0.788086 374.06 0.863765 373.872 0.998494 373.732C1.13322 373.593 1.31597 373.515 1.5065 373.515H275.224C275.414 373.515 275.597 373.593 275.732 373.732C275.866 373.872 275.942 374.06 275.942 374.257C275.942 374.454 275.866 374.643 275.732 374.783C275.597 374.922 275.414 375 275.224 375Z" fill="#CCCCCC"/>
<path d="M153.957 363.349L165.454 363.348L170.923 319.063L153.956 319.064L153.957 363.349Z" fill="#A0616A"/>
<path d="M151.025 359.6L173.666 359.599H173.667C177.494 359.6 181.164 361.118 183.87 363.82C186.576 366.522 188.096 370.187 188.096 374.009V374.477L151.026 374.478L151.025 359.6Z" fill="#2F2E41"/>
<path d="M73.4409 355.485L84.6015 358.243L100.565 316.568L84.0934 312.497L73.4409 355.485Z" fill="#A0616A"/>
<path d="M71.4962 351.143L93.4743 356.574L93.4752 356.575C97.1897 357.493 100.387 359.847 102.363 363.119C104.34 366.392 104.934 370.314 104.015 374.024L103.902 374.478L67.9175 365.585L71.4962 351.143Z" fill="#2F2E41"/>
<path d="M115.97 175.459L105.861 232.927C105.861 232.927 101.973 239.916 103.528 243.022C105.084 246.129 105.861 246.129 103.528 247.682C101.195 249.235 98.0849 247.682 98.8625 251.565C99.3286 253.867 99.5888 256.206 99.6402 258.554L77.8665 333.107C77.8665 333.107 63.8691 339.319 73.9783 343.202C84.0875 347.085 94.1967 350.192 96.5296 346.309C98.8625 342.426 96.5296 337.766 96.5296 337.766L132.301 252.341C132.301 252.341 137.744 244.575 137.744 239.916C137.744 235.256 155.63 201.863 155.63 201.863C155.63 201.863 156.407 235.256 157.185 237.586C157.962 239.916 155.63 244.575 155.63 247.682C155.63 250.788 154.074 250.788 155.63 252.341C157.185 253.894 157.185 271.756 157.185 271.756C157.185 271.756 147.853 340.873 153.297 341.649C158.74 342.426 174.293 340.873 174.293 337.766C174.361 336.956 174.172 336.146 173.753 335.449C173.335 334.752 172.707 334.204 171.96 333.883L182.069 274.862C182.069 274.862 181.291 270.979 182.847 267.873C184.402 264.767 184.402 264.767 184.402 263.213C184.402 261.66 183.624 260.884 184.402 260.107C184.91 259.437 185.183 258.618 185.179 257.777C185.179 257.777 183.624 253.118 184.402 252.341C185.179 251.565 202.287 193.32 196.844 186.331C191.401 179.342 115.97 175.459 115.97 175.459Z" fill="#2F2E41"/>
<path d="M150.749 51.4462C161.915 51.4462 170.968 42.4062 170.968 31.2549C170.968 20.1035 161.915 11.0635 150.749 11.0635C139.583 11.0635 130.531 20.1035 130.531 31.2549C130.531 42.4062 139.583 51.4462 150.749 51.4462Z" fill="#A0616A"/>
<path d="M136.465 45.8768C137.504 45.1806 137.544 43.5874 137.196 42.2948C136.847 41.0021 136.214 39.731 136.268 38.4162C136.417 34.8132 141.386 33.368 141.67 29.7827C141.845 27.5777 140.131 25.1395 141.12 23.2303C141.744 22.0247 143.196 21.6226 144.519 21.3911C149.651 20.5059 154.903 20.5764 160.009 21.5989L160.754 19.6446L164.538 22.1382C164.745 20.9254 166.426 20.8038 167.525 21.3858C168.623 21.9679 169.574 22.9731 170.773 23.1672C172.684 23.4765 174.194 21.41 174.093 19.4216C173.993 17.4331 172.778 15.6319 171.506 14.0613C168.323 10.1247 164.463 6.78713 160.105 4.20567L161.155 2.31599L158.907 3.21791L158.66 0.957897L156.469 2.18763L156.438 0.1521C154.092 2.84199 150.007 2.74931 146.421 2.99189C140.426 3.26902 134.667 5.40729 129.947 9.10858C127.591 11.0298 125.661 13.4201 124.281 16.1272C122.9 18.8343 122.1 21.7988 121.93 24.8319C121.726 29.5821 123.366 35.3637 126.878 38.8862C130.071 42.088 134.8 40.145 136.465 45.8768Z" fill="#2F2E41"/>
<path d="M200.36 227.157C199.333 226.196 198.53 225.021 198.007 223.716C197.484 222.411 197.255 221.007 197.334 219.604C197.413 218.201 197.799 216.832 198.465 215.594C199.131 214.355 200.061 213.278 201.19 212.438L195.797 191.137L207.959 184.708L215.152 214.895C216.44 216.881 216.954 219.27 216.596 221.609C216.238 223.949 215.033 226.076 213.21 227.587C211.386 229.099 209.071 229.89 206.703 229.81C204.335 229.731 202.078 228.787 200.36 227.157Z" fill="#A0616A"/>
<path d="M167.854 199.592C143.278 199.593 120.655 188.485 120.35 188.332L120.096 188.206L118.034 138.776C117.436 137.03 105.659 102.563 103.665 91.608C101.644 80.5089 130.932 70.768 134.489 69.6288L135.296 60.7001L168.117 57.1682L172.277 68.5929L184.051 73.0021C185.386 73.5024 186.491 74.4743 187.156 75.7337C187.822 76.993 188.001 78.4523 187.661 79.8351L181.117 106.413L193.989 194.344L193.659 194.493C185.517 198.001 176.721 199.74 167.854 199.592V199.592Z" fill="#25A25A"/>
<path d="M197.197 205.108L185.807 158.282L173.461 101.774L179.728 73.6111H185.086C185.184 73.6111 194.92 73.7566 197.016 86.3162C199.046 98.4813 205.169 137.197 205.23 137.587L215.578 203.722L197.197 205.108Z" fill="#25A25A"/>
<path d="M148.459 197.195C148.393 195.791 148.019 194.419 147.363 193.175C146.708 191.931 145.788 190.845 144.667 189.995C143.547 189.144 142.253 188.55 140.877 188.253C139.502 187.956 138.078 187.963 136.705 188.275L123.974 170.357L111.184 175.428L129.519 200.48C130.196 202.747 131.684 204.688 133.698 205.934C135.713 207.179 138.115 207.644 140.45 207.239C142.785 206.834 144.889 205.588 146.366 203.737C147.842 201.886 148.587 199.558 148.459 197.195Z" fill="#A0616A"/>
<path d="M123.646 195.867L85.1226 145.958L99.5569 100.654C100.615 89.264 107.752 86.0835 108.055 85.9535L108.518 85.7551L121.079 119.206L111.857 143.766L134.493 181.785L123.646 195.867Z" fill="#25A25A"/>
</svg>
