<svg width="198" height="162" viewBox="0 0 198 162" fill="none" xmlns="http://www.w3.org/2000/svg">
<g clip-path="url(#clip0)">
<path d="M22.0024 99.8437C22.9435 95.7424 23.2064 92.3044 22.5895 92.1647C21.9726 92.0249 20.7096 95.2364 19.7685 99.3376C18.8274 103.439 18.5645 106.877 19.1814 107.017C19.7983 107.156 21.0613 103.945 22.0024 99.8437Z" fill="#E0E0E0"/>
<path d="M125.524 123.336C126.465 119.235 126.888 115.833 126.469 115.738C126.05 115.643 124.947 118.891 124.006 122.992C123.065 127.093 122.642 130.495 123.061 130.59C123.48 130.685 124.583 127.437 125.524 123.336Z" fill="#E0E0E0"/>
<path d="M71.3605 116.798L67.2427 114.798L60.5339 128.492L64.6517 130.492L71.3605 116.798Z" fill="#F55F44"/>
<path opacity="0.05" d="M66.427 131.028L71.584 130.995L71.5123 115.765L66.3554 115.798L66.427 131.028Z" fill="black"/>
<path d="M67.0012 131.024L71.5845 130.995L71.5128 115.765L66.9295 115.794L67.0012 131.024Z" fill="#F55F44"/>
<path d="M22.6746 91.7934L19.0962 107.388L122.974 130.92L126.553 115.325L22.6746 91.7934Z" fill="url(#paint0_linear)"/>
<path d="M123.059 130.548C121.033 130.118 17.692 106.679 19.1813 107.017C22.4283 97.9872 22.5893 92.1647 22.5893 92.1647L126.467 115.696C126.467 115.696 124.581 122.183 123.059 130.548Z" fill="#F5F5F5"/>
<path opacity="0.05" d="M76.5761 104.394L68.0127 102.455L64.6046 117.307L73.1681 119.246L76.5761 104.394Z" fill="black"/>
<path d="M76.2036 104.31L68.3848 102.539L64.9767 117.391L72.7955 119.162L76.2036 104.31Z" fill="#F55F44"/>
<path opacity="0.05" d="M74.7145 103.973L69.502 102.792L66.0939 117.644L71.3064 118.825L74.7145 103.973Z" fill="black"/>
<path d="M74.3424 103.888L69.8745 102.876L66.4665 117.728L70.9343 118.74L74.3424 103.888Z" fill="#F55F44"/>
<path d="M84.1089 146.789C84.4509 146.707 84.6616 146.364 84.5795 146.023C84.4974 145.682 84.1536 145.472 83.8116 145.555C83.4696 145.637 83.2589 145.98 83.341 146.321C83.4231 146.662 83.7669 146.871 84.1089 146.789Z" fill="#DBDBDB"/>
<g opacity="0.5">
<path opacity="0.5" d="M31.3478 140.565L30.7129 140.718L31.5767 144.304L32.2117 144.151L31.3478 140.565Z" fill="#47E6B1"/>
<path opacity="0.5" d="M33.3375 142.317L33.1851 141.685L29.587 142.552L29.7394 143.184L33.3375 142.317Z" fill="#47E6B1"/>
</g>
<g opacity="0.5">
<path opacity="0.5" d="M180.585 57.3031L179.95 57.4561L180.814 61.0416L181.449 60.8886L180.585 57.3031Z" fill="#47E6B1"/>
<path opacity="0.5" d="M182.574 59.0553L182.422 58.4225L178.824 59.2894L178.976 59.9221L182.574 59.0553Z" fill="#47E6B1"/>
</g>
<g opacity="0.5">
<path opacity="0.5" d="M13.6638 50.4317L13.0288 50.5847L13.8926 54.1702L14.5276 54.0172L13.6638 50.4317Z" fill="#47E6B1"/>
<path opacity="0.5" d="M15.6534 52.1839L15.501 51.5512L11.9029 52.418L12.0553 53.0508L15.6534 52.1839Z" fill="#47E6B1"/>
</g>
<g opacity="0.5">
<path opacity="0.5" d="M149.493 11.9062L148.858 12.0591L149.722 15.6446L150.357 15.4917L149.493 11.9062Z" fill="#47E6B1"/>
<path opacity="0.5" d="M151.483 13.6584L151.331 13.0256L147.732 13.8925L147.885 14.5252L151.483 13.6584Z" fill="#47E6B1"/>
</g>
<path opacity="0.5" d="M15.48 93.3879C15.2867 93.3541 15.1128 93.2506 14.9912 93.0972C14.8697 92.9437 14.8091 92.751 14.821 92.5556C14.8233 92.5256 14.822 92.4954 14.8172 92.4656C14.8022 92.381 14.7603 92.3036 14.6976 92.2447C14.635 92.1858 14.5549 92.1486 14.4694 92.1387C14.3838 92.1287 14.2972 92.1465 14.2225 92.1894C14.1478 92.2323 14.0889 92.298 14.0545 92.3768C14.0428 92.4047 14.0345 92.4338 14.0297 92.4636C13.9955 92.6563 13.8914 92.8299 13.7373 92.9512C13.5832 93.0726 13.3897 93.1333 13.1938 93.1218C13.1636 93.1196 13.1333 93.1209 13.1035 93.1258C13.0186 93.1408 12.9408 93.1828 12.8817 93.2453C12.8225 93.3078 12.7851 93.3877 12.775 93.473C12.7648 93.5584 12.7825 93.6446 12.8254 93.719C12.8684 93.7935 12.9342 93.8521 13.0132 93.8862C13.0411 93.8978 13.0703 93.9061 13.1002 93.9108C13.2934 93.9446 13.4674 94.0481 13.5889 94.2015C13.7104 94.355 13.771 94.5477 13.7592 94.743C13.7569 94.7731 13.7581 94.8033 13.763 94.8331C13.778 94.9177 13.8199 94.9951 13.8825 95.054C13.9452 95.1129 14.0252 95.1501 14.1108 95.16C14.1964 95.17 14.2829 95.1522 14.3577 95.1093C14.4324 95.0664 14.4913 95.0007 14.5257 94.9218C14.5373 94.894 14.5456 94.8649 14.5505 94.8351C14.5846 94.6424 14.6887 94.4688 14.8429 94.3474C14.997 94.2261 15.1904 94.1653 15.3864 94.1768C15.4165 94.1791 15.4468 94.1778 15.4767 94.1729C15.5615 94.1578 15.6393 94.1159 15.6985 94.0534C15.7577 93.9908 15.7951 93.911 15.8052 93.8257C15.8153 93.7403 15.7976 93.6541 15.7547 93.5796C15.7118 93.5052 15.646 93.4466 15.5669 93.4124C15.539 93.4009 15.5098 93.3926 15.48 93.3879Z" fill="#4D8AF0"/>
<path opacity="0.5" d="M41.8741 43.0679C41.6808 43.0341 41.5068 42.9306 41.3853 42.7772C41.2638 42.6237 41.2032 42.431 41.215 42.2356C41.2173 42.2056 41.2161 42.1754 41.2112 42.1456C41.1963 42.061 41.1543 41.9836 41.0917 41.9247C41.029 41.8658 40.949 41.8286 40.8634 41.8186C40.7778 41.8087 40.6913 41.8265 40.6165 41.8694C40.5418 41.9123 40.4829 41.978 40.4485 42.0568C40.4369 42.0847 40.4286 42.1138 40.4237 42.1435C40.3895 42.3363 40.2855 42.5099 40.1313 42.6312C39.9772 42.7526 39.7838 42.8133 39.5878 42.8018C39.5577 42.7996 39.5274 42.8009 39.4975 42.8058C39.4127 42.8208 39.3349 42.8628 39.2757 42.9253C39.2165 42.9878 39.1791 43.0677 39.169 43.153C39.1589 43.2384 39.1766 43.3246 39.2195 43.399C39.2624 43.4735 39.3283 43.5321 39.4073 43.5662C39.4352 43.5778 39.4644 43.5861 39.4942 43.5908C39.6875 43.6246 39.8614 43.7281 39.983 43.8815C40.1045 44.035 40.1651 44.2277 40.1532 44.4231C40.1509 44.4531 40.1522 44.4833 40.157 44.5131C40.172 44.5977 40.2139 44.6751 40.2766 44.734C40.3392 44.7929 40.4193 44.8301 40.5048 44.84C40.5904 44.85 40.677 44.8322 40.7517 44.7893C40.8264 44.7464 40.8854 44.6807 40.9197 44.6018C40.9314 44.574 40.9397 44.5449 40.9445 44.5151C40.9787 44.3224 41.0828 44.1488 41.2369 44.0275C41.391 43.9061 41.5845 43.8453 41.7804 43.8569C41.8106 43.8591 41.8409 43.8578 41.8707 43.8529C41.9556 43.8379 42.0334 43.7959 42.0925 43.7334C42.1517 43.6708 42.1891 43.591 42.1993 43.5057C42.2094 43.4203 42.1917 43.3341 42.1488 43.2597C42.1058 43.1852 42.04 43.1266 41.961 43.0924C41.9331 43.0809 41.9039 43.0726 41.8741 43.0679Z" fill="#4D8AF0"/>
<path opacity="0.5" d="M112.286 140.136C112.093 140.102 111.919 139.999 111.797 139.845C111.676 139.692 111.615 139.499 111.627 139.304C111.629 139.273 111.628 139.243 111.623 139.213C111.608 139.129 111.566 139.051 111.504 138.993C111.441 138.934 111.361 138.896 111.276 138.887C111.19 138.877 111.103 138.894 111.029 138.937C110.954 138.98 110.895 139.046 110.861 139.125C110.849 139.153 110.841 139.182 110.836 139.211C110.802 139.404 110.698 139.578 110.543 139.699C110.389 139.82 110.196 139.881 110 139.87C109.97 139.867 109.939 139.869 109.91 139.874C109.825 139.889 109.747 139.931 109.688 139.993C109.629 140.056 109.591 140.136 109.581 140.221C109.571 140.306 109.589 140.392 109.632 140.467C109.675 140.541 109.74 140.6 109.819 140.634C109.847 140.646 109.876 140.654 109.906 140.659C110.1 140.692 110.274 140.796 110.395 140.949C110.517 141.103 110.577 141.296 110.565 141.491C110.563 141.521 110.564 141.551 110.569 141.581C110.584 141.666 110.626 141.743 110.689 141.802C110.751 141.861 110.831 141.898 110.917 141.908C111.003 141.918 111.089 141.9 111.164 141.857C111.239 141.814 111.297 141.749 111.332 141.67C111.343 141.642 111.352 141.613 111.357 141.583C111.391 141.39 111.495 141.217 111.649 141.095C111.803 140.974 111.997 140.913 112.193 140.925C112.223 140.927 112.253 140.926 112.283 140.921C112.368 140.906 112.445 140.864 112.505 140.801C112.564 140.739 112.601 140.659 112.611 140.574C112.621 140.488 112.604 140.402 112.561 140.328C112.518 140.253 112.452 140.194 112.373 140.16C112.345 140.149 112.316 140.141 112.286 140.136Z" fill="#4D8AF0"/>
<path opacity="0.5" d="M183.593 96.7459C184.294 96.577 184.726 95.8734 184.558 95.1745C184.39 94.4756 183.685 94.046 182.983 94.215C182.282 94.384 181.85 95.0875 182.018 95.7864C182.187 96.4853 182.892 96.9149 183.593 96.7459Z" fill="#F55F44"/>
<path opacity="0.5" d="M157.586 111.491C158.287 111.322 158.719 110.619 158.551 109.92C158.382 109.221 157.677 108.791 156.976 108.96C156.275 109.129 155.843 109.833 156.011 110.532C156.179 111.231 156.884 111.66 157.586 111.491Z" fill="#4D8AF0"/>
<path opacity="0.5" d="M49.678 150.654C50.3794 150.485 50.8114 149.782 50.643 149.083C50.4747 148.384 49.7696 147.954 49.0683 148.123C48.3669 148.292 47.9348 148.996 48.1032 149.695C48.2716 150.394 48.9766 150.823 49.678 150.654Z" fill="#47E6B1"/>
<path opacity="0.5" d="M87.6824 22.1113C88.3838 21.9423 88.8158 21.2388 88.6475 20.5399C88.4791 19.841 87.774 19.4114 87.0727 19.5803C86.3713 19.7493 85.9392 20.4529 86.1076 21.1518C86.276 21.8507 86.981 22.2803 87.6824 22.1113Z" fill="#F55F44"/>
<path d="M61.5319 105.511L58.2815 114.328C58.2815 114.328 61.8547 121.723 99.2663 112.487C136.678 103.251 137.863 95.155 137.863 95.155L128.439 86.714L103.556 77.3111L61.5319 105.511Z" fill="#25A25A"/>
<path opacity="0.15" d="M61.5319 105.511L58.2815 114.328C58.2815 114.328 61.8547 121.723 99.2663 112.487C136.678 103.251 137.863 95.155 137.863 95.155L128.439 86.714L103.556 77.3111L61.5319 105.511Z" fill="#25A25A"/>
<path d="M162.797 51.3235L103.189 96.7023L14.8516 86.9659L81.2232 35.2713L121.843 43.264L123.298 43.5516L162.797 51.3235Z" fill="#25A25A"/>
<path opacity="0.15" d="M162.797 51.3235L103.189 96.7023L14.8516 86.9659L81.2232 35.2713L121.843 43.264L123.298 43.5516L162.797 51.3235Z" fill="black"/>
<path d="M130.308 66.586L129.056 66.9679L121.843 43.264L123.298 43.5516L130.308 66.586Z" fill="#F5F5F5"/>
<path d="M55.5696 77.0448L58.2814 114.328C58.2814 114.328 97.5207 90.3691 137.863 95.155L123.213 58.5167C123.213 58.5167 72.0017 64.383 55.5696 77.0448Z" fill="#3EB771"/>
<path d="M131.964 73.926C135.354 73.1093 137.647 70.5587 137.086 68.229C136.525 65.8993 133.322 64.6728 129.932 65.4895C126.542 66.3062 124.249 68.8568 124.81 71.1864C125.371 73.5161 128.574 74.7426 131.964 73.926Z" fill="#F5F5F5"/>
</g>
<defs>
<linearGradient id="paint0_linear" x1="71.0352" y1="119.154" x2="74.5701" y2="103.549" gradientUnits="userSpaceOnUse">
<stop stop-color="#808080" stop-opacity="0.25"/>
<stop offset="0.53514" stop-color="#808080" stop-opacity="0.12"/>
<stop offset="1" stop-color="#808080" stop-opacity="0.1"/>
</linearGradient>
<clipPath id="clip0">
<rect width="173.164" height="124.535" fill="white" transform="translate(0 40.5576) rotate(-13.5454)"/>
</clipPath>
</defs>
</svg>
