<svg width="555" height="402" viewBox="0 0 555 402" fill="none" xmlns="http://www.w3.org/2000/svg">
<path d="M353.674 301.367V398.273H110.713C83.0307 398.273 60.5083 376.536 60.5083 349.82C60.5083 323.104 83.0307 301.367 110.713 301.367H353.674Z" fill="#F2F2F2"/>
<path d="M359.642 397.527C359.641 398.516 359.248 399.464 358.549 400.163C357.849 400.861 356.901 401.254 355.912 401.255H106.385C92.8332 401.255 79.836 395.875 70.2531 386.299C60.6702 376.723 55.2866 363.735 55.2866 350.193C55.2866 336.65 60.6702 323.662 70.2531 314.086C79.836 304.51 92.8332 299.131 106.385 299.131H355.912C356.901 299.131 357.85 299.523 358.549 300.222C359.249 300.921 359.642 301.869 359.642 302.858C359.642 303.846 359.249 304.794 358.549 305.493C357.85 306.192 356.901 306.585 355.912 306.585H106.385C94.8116 306.585 83.7118 311.179 75.5279 319.357C67.344 327.535 62.7463 338.627 62.7463 350.193C62.7463 361.758 67.344 372.85 75.5279 381.028C83.7118 389.206 94.8116 393.8 106.385 393.8H355.912C356.901 393.801 357.849 394.193 358.549 394.892C359.248 395.591 359.641 396.539 359.642 397.527Z" fill="#25A25A"/>
<path d="M353.674 323.73H92.5853C92.3875 323.73 92.1978 323.651 92.0579 323.512C91.918 323.372 91.8394 323.182 91.8394 322.984C91.8394 322.787 91.918 322.597 92.0579 322.457C92.1978 322.318 92.3875 322.239 92.5853 322.239H353.674C353.872 322.239 354.062 322.318 354.202 322.457C354.341 322.597 354.42 322.787 354.42 322.984C354.42 323.182 354.341 323.372 354.202 323.512C354.062 323.651 353.872 323.73 353.674 323.73Z" fill="#CCCCCC"/>
<path d="M353.674 341.62H92.5853C92.3875 341.62 92.1978 341.542 92.0579 341.402C91.918 341.262 91.8394 341.072 91.8394 340.875C91.8394 340.677 91.918 340.487 92.0579 340.348C92.1978 340.208 92.3875 340.129 92.5853 340.129H353.674C353.872 340.129 354.062 340.208 354.202 340.348C354.341 340.487 354.42 340.677 354.42 340.875C354.42 341.072 354.341 341.262 354.202 341.402C354.062 341.542 353.872 341.62 353.674 341.62Z" fill="#CCCCCC"/>
<path d="M353.674 359.51H92.5853C92.3875 359.51 92.1978 359.432 92.0579 359.292C91.918 359.152 91.8394 358.963 91.8394 358.765C91.8394 358.567 91.918 358.378 92.0579 358.238C92.1978 358.098 92.3875 358.02 92.5853 358.02H353.674C353.872 358.02 354.062 358.098 354.202 358.238C354.341 358.378 354.42 358.567 354.42 358.765C354.42 358.963 354.341 359.152 354.202 359.292C354.062 359.432 353.872 359.51 353.674 359.51Z" fill="#CCCCCC"/>
<path d="M353.674 377.401H92.5853C92.3875 377.401 92.1978 377.322 92.0579 377.182C91.918 377.043 91.8394 376.853 91.8394 376.655C91.8394 376.458 91.918 376.268 92.0579 376.128C92.1978 375.988 92.3875 375.91 92.5853 375.91H353.674C353.872 375.91 354.062 375.988 354.202 376.128C354.341 376.268 354.42 376.458 354.42 376.655C354.42 376.853 354.341 377.043 354.202 377.182C354.062 377.322 353.872 377.401 353.674 377.401Z" fill="#CCCCCC"/>
<path d="M541.447 319.608L480.602 395.067L291.413 242.738C269.858 225.382 265.968 194.336 282.742 173.532C299.517 152.729 330.702 149.924 352.258 167.28L541.447 319.608Z" fill="#F2F2F2"/>
<path d="M485.717 398.228C485.097 398.997 484.195 399.489 483.212 399.595C482.229 399.7 481.243 399.412 480.473 398.792L286.172 242.347C275.619 233.85 268.876 221.512 267.427 208.047C265.977 194.582 269.94 181.094 278.443 170.548C286.946 160.003 299.292 153.265 312.767 151.817C326.241 150.368 339.74 154.328 350.293 162.825L544.594 319.27C544.975 319.577 545.293 319.956 545.528 320.386C545.763 320.815 545.911 321.287 545.964 321.774C546.016 322.261 545.972 322.753 545.834 323.223C545.696 323.693 545.467 324.131 545.16 324.512C544.852 324.893 544.473 325.21 544.043 325.445C543.612 325.68 543.14 325.827 542.653 325.88C542.166 325.932 541.673 325.888 541.203 325.749C540.733 325.611 540.295 325.382 539.913 325.075L345.612 168.629C341.15 165.034 336.023 162.352 330.523 160.737C325.024 159.122 319.259 158.605 313.56 159.217C307.86 159.828 302.337 161.556 297.306 164.301C292.275 167.046 287.835 170.754 284.238 175.215C280.641 179.675 277.96 184.8 276.346 190.296C274.731 195.792 274.217 201.553 274.831 207.248C275.445 212.943 277.176 218.461 279.925 223.488C282.674 228.514 286.387 232.95 290.852 236.542L485.153 392.987C485.923 393.608 486.415 394.508 486.521 395.491C486.627 396.474 486.338 397.458 485.717 398.228Z" fill="#292929"/>
<path d="M527.406 337.022L324.101 173.327C324.025 173.266 323.961 173.19 323.915 173.104C323.868 173.018 323.838 172.924 323.828 172.827C323.817 172.729 323.826 172.631 323.853 172.537C323.881 172.443 323.927 172.355 323.988 172.279C324.05 172.203 324.126 172.14 324.212 172.093C324.298 172.046 324.392 172.016 324.489 172.006C324.587 171.995 324.685 172.004 324.779 172.032C324.873 172.059 324.961 172.105 325.037 172.166L528.342 335.861C528.418 335.922 528.482 335.998 528.529 336.084C528.576 336.17 528.606 336.264 528.616 336.362C528.627 336.459 528.618 336.558 528.59 336.652C528.563 336.746 528.517 336.833 528.455 336.91C528.394 336.986 528.318 337.049 528.232 337.096C528.146 337.143 528.051 337.173 527.954 337.183C527.856 337.194 527.758 337.185 527.664 337.157C527.57 337.129 527.482 337.083 527.406 337.022V337.022Z" fill="#CCCCCC"/>
<path d="M516.173 350.953L312.869 187.258C312.715 187.134 312.617 186.954 312.596 186.758C312.575 186.561 312.632 186.364 312.756 186.211C312.88 186.057 313.061 185.958 313.257 185.937C313.454 185.916 313.651 185.974 313.805 186.097L517.109 349.792C517.186 349.853 517.249 349.929 517.296 350.015C517.343 350.101 517.373 350.195 517.384 350.293C517.394 350.39 517.385 350.488 517.358 350.583C517.33 350.677 517.284 350.764 517.223 350.84C517.161 350.917 517.085 350.98 516.999 351.027C516.913 351.074 516.819 351.104 516.721 351.114C516.624 351.124 516.525 351.115 516.431 351.088C516.337 351.06 516.249 351.014 516.173 350.953Z" fill="#CCCCCC"/>
<path d="M504.94 364.884L301.635 201.189C301.481 201.065 301.383 200.885 301.362 200.688C301.341 200.492 301.398 200.295 301.523 200.141C301.647 199.987 301.827 199.889 302.024 199.867C302.22 199.846 302.417 199.904 302.571 200.028L505.876 363.723C505.952 363.784 506.016 363.86 506.063 363.946C506.11 364.032 506.139 364.126 506.15 364.223C506.16 364.321 506.151 364.419 506.124 364.513C506.096 364.607 506.05 364.695 505.989 364.771C505.927 364.847 505.852 364.91 505.766 364.957C505.68 365.004 505.585 365.034 505.488 365.044C505.39 365.055 505.292 365.046 505.198 365.018C505.104 364.991 505.016 364.945 504.94 364.883V364.884Z" fill="#CCCCCC"/>
<path d="M493.708 378.814L290.403 215.12C290.327 215.059 290.263 214.983 290.216 214.897C290.169 214.811 290.14 214.717 290.129 214.619C290.119 214.522 290.128 214.423 290.155 214.33C290.183 214.236 290.229 214.148 290.29 214.072C290.352 213.996 290.427 213.932 290.513 213.885C290.599 213.838 290.694 213.809 290.791 213.798C290.889 213.788 290.987 213.797 291.081 213.824C291.175 213.852 291.263 213.898 291.339 213.959L494.644 377.654C494.72 377.715 494.784 377.791 494.831 377.877C494.878 377.963 494.907 378.057 494.918 378.154C494.928 378.252 494.92 378.35 494.892 378.444C494.865 378.538 494.819 378.626 494.757 378.702C494.696 378.779 494.62 378.842 494.534 378.889C494.448 378.936 494.353 378.965 494.256 378.976C494.158 378.986 494.06 378.977 493.966 378.95C493.871 378.922 493.784 378.876 493.708 378.814Z" fill="#CCCCCC"/>
<path d="M554.254 402H0.745968C0.548125 402 0.358384 401.921 0.218488 401.782C0.0785922 401.642 0 401.452 0 401.255C0 401.057 0.0785922 400.867 0.218488 400.727C0.358384 400.588 0.548125 400.509 0.745968 400.509H554.254C554.452 400.509 554.642 400.588 554.781 400.727C554.921 400.867 555 401.057 555 401.255C555 401.452 554.921 401.642 554.781 401.782C554.642 401.921 554.452 402 554.254 402Z" fill="#CCCCCC"/>
<path d="M252.197 291.181L243.67 291.181L239.614 258.31L252.2 258.312L252.197 291.181Z" fill="#FFB8B8"/>
<path d="M237.578 288.746H254.025V299.094H227.222C227.222 297.735 227.49 296.389 228.01 295.134C228.531 293.878 229.294 292.738 230.255 291.777C231.217 290.816 232.358 290.054 233.615 289.534C234.871 289.014 236.218 288.746 237.578 288.746Z" fill="#2F2E41"/>
<path d="M165.072 291.181L156.544 291.181L152.488 258.31L165.075 258.312L165.072 291.181Z" fill="#FFB8B8"/>
<path d="M150.453 288.746H166.9V299.094H140.097C140.097 297.735 140.365 296.389 140.885 295.134C141.406 293.878 142.169 292.738 143.13 291.777C144.092 290.816 145.233 290.054 146.49 289.534C147.746 289.014 149.093 288.746 150.453 288.746Z" fill="#2F2E41"/>
<path d="M193.557 47.3595V43.6323C193.557 37.2564 196.091 31.1418 200.603 26.6334C205.115 22.125 211.234 19.5922 217.614 19.5922H217.614C223.995 19.5922 230.114 22.125 234.625 26.6334C239.137 31.1418 241.672 37.2564 241.672 43.6323V47.3595C241.672 51.956 239.844 56.3643 236.592 59.6145C233.339 62.8648 228.928 64.6907 224.328 64.6907H210.9C208.623 64.6907 206.368 64.2425 204.263 63.3715C202.159 62.5005 200.247 61.2239 198.637 59.6145C197.026 58.0052 195.748 56.0946 194.877 53.9919C194.005 51.8891 193.557 49.6355 193.557 47.3595Z" fill="#2F2E41"/>
<path d="M217.614 65.9731C227.733 65.9731 235.936 57.7761 235.936 47.6646C235.936 37.5531 227.733 29.3561 217.614 29.3561C207.495 29.3561 199.292 37.5531 199.292 47.6646C199.292 57.7761 207.495 65.9731 217.614 65.9731Z" fill="#FFB8B8"/>
<path d="M117.956 110.589C118.699 109.887 119.588 109.357 120.559 109.036C121.529 108.714 122.559 108.609 123.574 108.729C124.59 108.848 125.567 109.188 126.437 109.726C127.307 110.263 128.048 110.984 128.608 111.839L144.315 108.87L148.448 117.968L126.209 121.849C124.71 122.695 122.952 122.962 121.269 122.599C119.586 122.237 118.095 121.27 117.077 119.882C116.06 118.494 115.588 116.781 115.749 115.068C115.911 113.356 116.696 111.762 117.956 110.589V110.589Z" fill="#FFB8B8"/>
<path d="M203.33 77.5033L203.536 77.8143L177.78 94.7686L134.322 108.636C133.746 108.821 133.251 109.2 132.923 109.708C132.595 110.216 132.454 110.822 132.522 111.423L133.47 119.583C133.512 119.944 133.63 120.292 133.814 120.605C133.999 120.919 134.247 121.19 134.543 121.402C134.838 121.614 135.175 121.761 135.531 121.836C135.888 121.91 136.255 121.909 136.611 121.833L177.512 113.072C179.492 112.65 181.363 111.827 183.011 110.653L211.946 90.081C212.995 89.3312 213.832 88.3229 214.375 87.1541C214.919 85.9854 215.15 84.696 215.048 83.4113C214.942 82.1248 214.502 80.8881 213.773 79.8229C213.043 78.7576 212.049 77.9004 210.887 77.3357C209.726 76.771 208.437 76.5181 207.148 76.602C205.859 76.686 204.614 77.1037 203.536 77.8143L203.33 77.5033Z" fill="#CCCCCC"/>
<path d="M243.822 281.854C243.167 281.854 242.527 281.663 241.979 281.306C241.431 280.948 240.999 280.439 240.735 279.84L201.639 183.306C201.548 183.097 201.395 182.92 201.2 182.801C201.005 182.681 200.779 182.624 200.551 182.636C200.322 182.649 200.104 182.732 199.924 182.872C199.744 183.013 199.611 183.206 199.544 183.424L167.648 277.403C167.513 277.841 167.29 278.246 166.993 278.594C166.696 278.942 166.331 279.226 165.92 279.428C165.509 279.63 165.061 279.745 164.604 279.768C164.146 279.79 163.689 279.719 163.26 279.558L152.564 275.55C151.984 275.335 151.474 274.962 151.093 274.475C150.711 273.987 150.473 273.404 150.403 272.789C145.591 230.901 187.553 125.171 187.977 124.109L188.095 123.814L226.346 132.269L226.425 132.356C241.686 148.992 254.23 253.922 256.59 274.788C256.678 275.542 256.506 276.303 256.103 276.946C255.7 277.589 255.09 278.076 254.373 278.326L244.932 281.663C244.576 281.789 244.2 281.854 243.822 281.854Z" fill="#2F2E41"/>
<path d="M210.865 135.673C201.597 135.673 191.265 133.826 188.085 126.205L188.011 126.03L188.11 125.868C190.621 121.752 193.938 114.731 192.155 113.413C188.642 110.817 186.938 106.547 187.089 100.721C187.417 88.0746 196.041 76.8461 208.547 72.7809H208.547C212.038 71.6645 215.591 70.7505 219.187 70.0434C221.809 69.5147 224.515 69.5729 227.112 70.2136C229.709 70.8544 232.131 72.0619 234.205 73.7494C236.306 75.448 238.003 77.5903 239.177 80.0224C240.35 82.4546 240.969 85.1163 240.991 87.8161C241.122 101.331 239.04 120.155 228.375 133.079C227.875 133.678 227.179 134.083 226.411 134.22C221.28 135.148 216.079 135.634 210.865 135.673Z" fill="#CCCCCC"/>
<path d="M207.417 135.166C207.922 133.359 209.12 131.823 210.751 130.892C212.382 129.962 214.315 129.713 216.129 130.199C216.499 130.302 216.861 130.436 217.209 130.599L229.135 119.753L237.428 125.337L220.374 140.418C219.604 141.805 218.392 142.895 216.93 143.515C215.468 144.134 213.841 144.248 212.308 143.837C211.414 143.592 210.579 143.173 209.848 142.604C209.118 142.035 208.508 141.327 208.053 140.521C207.598 139.715 207.308 138.826 207.199 137.907C207.09 136.988 207.164 136.057 207.417 135.166Z" fill="#FFB8B8"/>
<path d="M227.245 135.304C226.471 135.305 225.721 135.037 225.123 134.547L220.42 130.707C220.028 130.387 219.713 129.982 219.5 129.524C219.286 129.065 219.18 128.564 219.187 128.058C219.195 127.552 219.317 127.054 219.545 126.602C219.772 126.15 220.099 125.756 220.501 125.448L240.226 110.331C240.459 110.151 240.613 109.886 240.652 109.593C240.692 109.301 240.615 109.005 240.437 108.769L228.263 92.6858C226.848 90.8234 226.139 88.521 226.26 86.1861C226.381 83.8512 227.325 81.6345 228.925 79.9283C230.609 78.1101 232.917 76.9912 235.388 76.7937C237.86 76.5961 240.316 77.3343 242.268 78.8618L242.345 78.943L255.058 97.1332C256.433 98.2103 257.54 99.5904 258.292 101.166C259.045 102.741 259.423 104.469 259.397 106.214C259.371 107.96 258.942 109.675 258.143 111.227C257.343 112.78 256.196 114.126 254.79 115.162L229.243 134.646C228.665 135.074 227.965 135.304 227.245 135.304Z" fill="#CCCCCC"/>
<path d="M201.385 42.5141V33.4302L217.614 26.3486L233.089 33.4302V42.5141C233.089 42.9095 232.932 43.2887 232.652 43.5683C232.372 43.8479 231.993 44.005 231.597 44.005H202.877C202.482 44.005 202.102 43.8479 201.822 43.5683C201.542 43.2887 201.385 42.9095 201.385 42.5141Z" fill="#2F2E41"/>
<path d="M216.869 20.7972C214.483 13.1651 219.495 4.41837 226.903 1.39739C234.312 -1.62359 243.175 0.488168 249.427 5.47929C255.678 10.4704 259.557 17.9462 261.612 25.6739C263.667 33.4016 264.057 41.4597 264.436 49.4466C273.539 51.1174 279.731 61.906 276.577 70.6007C273.424 79.2954 261.753 83.615 253.693 79.0705C245.633 74.526 243.298 62.3098 249.115 55.1171C251.868 51.7137 253.406 47.4898 253.485 43.1146C253.564 38.7393 252.18 34.4627 249.552 30.9622C246.924 27.4617 243.203 24.9372 238.977 23.7888C234.752 22.6403 230.263 22.9334 226.223 24.6217C221.737 26.4964 216.108 21.6256 216.869 20.7972Z" fill="#2F2E41"/>
<path d="M114.591 75.3501C103.693 75.2786 92.931 72.9233 83.0007 68.4363C82.4096 68.1731 81.9078 67.7437 81.5566 67.2005C81.2053 66.6573 81.0198 66.0238 81.0225 65.3771V38.23C81.0235 37.3407 81.3775 36.4881 82.0068 35.8592C82.6361 35.2303 83.4894 34.8766 84.3793 34.8756H144.803C145.693 34.8766 146.546 35.2303 147.175 35.8592C147.805 36.4881 148.159 37.3407 148.16 38.23V65.3771C148.162 66.0238 147.977 66.6573 147.625 67.2005C147.274 67.7437 146.772 68.1731 146.181 68.4364C136.251 72.9233 125.489 75.2786 114.591 75.3501Z" fill="#25A25A"/>
<path d="M114.583 53.3577C114.135 53.3581 113.691 53.269 113.278 53.0957L65.3635 32.8948C64.7456 32.6343 64.2199 32.1949 63.8543 31.6331C63.4887 31.0713 63.2998 30.413 63.3121 29.7429C63.3244 29.0729 63.5373 28.4219 63.9232 27.8739C64.3092 27.3258 64.8506 26.9059 65.4777 26.6682L113.393 8.50379C114.165 8.20988 115.018 8.21169 115.789 8.50889L163.062 26.6733C163.686 26.9129 164.224 27.3329 164.607 27.8796C164.99 28.4263 165.201 29.0749 165.214 29.7423C165.226 30.4097 165.039 31.0656 164.676 31.6261C164.313 32.1866 163.791 32.6262 163.177 32.8886L115.903 53.0891C115.486 53.2668 115.037 53.3582 114.583 53.3577Z" fill="#25A25A"/>
<path d="M87.4665 67.3C89.9384 67.3 91.9423 65.2976 91.9423 62.8274C91.9423 60.3573 89.9384 58.3549 87.4665 58.3549C84.9946 58.3549 82.9907 60.3573 82.9907 62.8274C82.9907 65.2976 84.9946 67.3 87.4665 67.3Z" fill="white"/>
<path opacity="0.2" d="M163.341 30.0213L116.067 50.2219C115.698 50.3793 115.301 50.461 114.901 50.462C114.5 50.4629 114.103 50.3832 113.734 50.2275L65.8186 30.0272C65.2169 29.7796 64.7149 29.3387 64.3919 28.7741C64.1806 29.1402 64.0497 29.547 64.0078 29.9675C63.9659 30.3881 64.0141 30.8127 64.149 31.2132C64.2839 31.6138 64.5026 31.981 64.7905 32.2906C65.0783 32.6002 65.4288 32.8451 65.8186 33.0089L113.734 53.2092C114.103 53.3649 114.5 53.4447 114.901 53.4437C115.301 53.4427 115.698 53.3611 116.067 53.2036L163.341 33.003C163.729 32.8377 164.077 32.5921 164.363 32.2823C164.649 31.9726 164.866 31.6058 164.999 31.2061C165.133 30.8065 165.18 30.3831 165.138 29.9638C165.095 29.5446 164.965 29.1391 164.754 28.774C164.433 29.3341 163.937 29.7726 163.341 30.0213Z" fill="black"/>
<path d="M87.6013 62.2452C87.7924 62.2452 87.9757 62.1747 88.1108 62.0493C88.2459 61.9239 88.3218 61.7538 88.3218 61.5764V39.1986L112.084 31.1633C112.275 31.166 112.46 31.098 112.597 30.9745C112.734 30.8509 112.813 30.6819 112.815 30.5045C112.818 30.3272 112.745 30.156 112.612 30.0287C112.479 29.9014 112.297 29.8284 112.106 29.8258L88.3433 37.8611C88.1521 37.857 87.9619 37.889 87.7844 37.9551C87.6069 38.0212 87.4457 38.1201 87.3106 38.2458C87.174 38.3699 87.0656 38.5182 86.9918 38.6818C86.918 38.8455 86.8803 39.0212 86.8809 39.1986V61.5764C86.8809 61.7538 86.9568 61.9239 87.0919 62.0493C87.227 62.1747 87.4103 62.2452 87.6013 62.2452Z" fill="white"/>
</svg>
